<svg xmlns="http://www.w3.org/2000/svg" width="256" height="256" xml:space="preserve"><g style="stroke:none;stroke-width:0;stroke-dasharray:none;stroke-linecap:butt;stroke-linejoin:miter;stroke-miterlimit:10;fill:none;fill-rule:nonzero;opacity:1"><path d="M77.236 8.396H12.764C5.715 8.396 0 14.111 0 21.16v35.913c0 7.05 5.715 12.764 12.764 12.764h16.724L45 85.35l15.511-15.511h16.724c7.05 0 12.764-5.715 12.764-12.764V21.16C90 14.111 84.285 8.396 77.236 8.396z" style="stroke:none;stroke-width:1;stroke-dasharray:none;stroke-linecap:butt;stroke-linejoin:miter;stroke-miterlimit:10;fill:#ee5162;fill-rule:nonzero;opacity:1" transform="matrix(2.81 0 0 2.81 1.407 1.407)"/><path d="M61.031 28.502c-3.612-3.612-9.468-3.612-13.079 0L45 31.454l-2.952-2.952c-3.612-3.612-9.468-3.612-13.079 0-3.612 3.612-3.612 9.468 0 13.079l2.952 2.952L45 57.613l13.08-13.08 2.952-2.952c3.611-3.611 3.611-9.467-.001-13.079z" style="stroke:none;stroke-width:1;stroke-dasharray:none;stroke-linecap:butt;stroke-linejoin:miter;stroke-miterlimit:10;fill:#fff;fill-rule:nonzero;opacity:1" transform="matrix(2.81 0 0 2.81 1.407 1.407)"/></g></svg>